<mxfile host="Electron" modified="2023-11-06T04:05:36.213Z" agent="Mozilla/5.0 (Macintosh; Intel Mac OS X 10_15_7) AppleWebKit/537.36 (KHTML, like Gecko) draw.io/22.0.3 Chrome/114.0.5735.289 Electron/25.8.4 Safari/537.36" etag="PtryFUDacEcR57af52Gw" version="22.0.3" type="device">
  <diagram name="Page-1" id="xrRPwJruaMDhQzicvwRR">
    <mxGraphModel dx="1345" dy="2003" grid="1" gridSize="10" guides="1" tooltips="1" connect="1" arrows="1" fold="1" page="1" pageScale="1" pageWidth="827" pageHeight="1169" math="0" shadow="0">
      <root>
        <mxCell id="0" />
        <mxCell id="1" parent="0" />
        <mxCell id="TXrkAOCzkBwDEtICeqAb-29" value="AWS EC2" style="fontStyle=0;verticalAlign=top;align=center;spacingTop=-2;fillColor=none;rounded=0;whiteSpace=wrap;html=1;strokeColor=#000000;strokeWidth=2;dashed=1;container=1;collapsible=0;expand=0;recursiveResize=0;" vertex="1" parent="1">
          <mxGeometry x="120" y="70" width="480" height="470" as="geometry" />
        </mxCell>
        <mxCell id="TXrkAOCzkBwDEtICeqAb-33" value="" style="rounded=1;whiteSpace=wrap;html=1;fillColor=none;arcSize=2;" vertex="1" parent="1">
          <mxGeometry x="80" y="-20" width="1160" height="590" as="geometry" />
        </mxCell>
        <mxCell id="TXrkAOCzkBwDEtICeqAb-19" style="edgeStyle=orthogonalEdgeStyle;rounded=0;orthogonalLoop=1;jettySize=auto;html=1;startArrow=classic;startFill=1;" edge="1" parent="1" source="TXrkAOCzkBwDEtICeqAb-2">
          <mxGeometry relative="1" as="geometry">
            <mxPoint x="240" y="319" as="targetPoint" />
          </mxGeometry>
        </mxCell>
        <mxCell id="TXrkAOCzkBwDEtICeqAb-21" style="edgeStyle=orthogonalEdgeStyle;rounded=0;orthogonalLoop=1;jettySize=auto;html=1;entryX=0.573;entryY=-0.013;entryDx=0;entryDy=0;entryPerimeter=0;startArrow=classic;startFill=1;" edge="1" parent="1" source="TXrkAOCzkBwDEtICeqAb-2" target="TXrkAOCzkBwDEtICeqAb-8">
          <mxGeometry relative="1" as="geometry">
            <mxPoint x="359" y="430" as="targetPoint" />
          </mxGeometry>
        </mxCell>
        <mxCell id="TXrkAOCzkBwDEtICeqAb-22" style="edgeStyle=orthogonalEdgeStyle;rounded=0;orthogonalLoop=1;jettySize=auto;html=1;startArrow=classic;startFill=1;" edge="1" parent="1" source="TXrkAOCzkBwDEtICeqAb-2">
          <mxGeometry relative="1" as="geometry">
            <mxPoint x="359.0000000000002" y="198" as="targetPoint" />
          </mxGeometry>
        </mxCell>
        <mxCell id="TXrkAOCzkBwDEtICeqAb-2" value="" style="sketch=0;points=[[0,0,0],[0.25,0,0],[0.5,0,0],[0.75,0,0],[1,0,0],[0,1,0],[0.25,1,0],[0.5,1,0],[0.75,1,0],[1,1,0],[0,0.25,0],[0,0.5,0],[0,0.75,0],[1,0.25,0],[1,0.5,0],[1,0.75,0]];outlineConnect=0;fontColor=#232F3E;fillColor=#ED7100;strokeColor=#ffffff;dashed=0;verticalLabelPosition=bottom;verticalAlign=top;align=center;html=1;fontSize=12;fontStyle=0;aspect=fixed;shape=mxgraph.aws4.resourceIcon;resIcon=mxgraph.aws4.ec2;" vertex="1" parent="1">
          <mxGeometry x="320" y="280" width="78" height="78" as="geometry" />
        </mxCell>
        <mxCell id="TXrkAOCzkBwDEtICeqAb-4" value="" style="sketch=0;points=[[0,0,0],[0.25,0,0],[0.5,0,0],[0.75,0,0],[1,0,0],[0,1,0],[0.25,1,0],[0.5,1,0],[0.75,1,0],[1,1,0],[0,0.25,0],[0,0.5,0],[0,0.75,0],[1,0.25,0],[1,0.5,0],[1,0.75,0]];outlineConnect=0;fontColor=#232F3E;fillColor=#7AA116;strokeColor=#ffffff;dashed=0;verticalLabelPosition=bottom;verticalAlign=top;align=center;html=1;fontSize=12;fontStyle=0;aspect=fixed;shape=mxgraph.aws4.resourceIcon;resIcon=mxgraph.aws4.elastic_block_store;" vertex="1" parent="1">
          <mxGeometry x="160" y="280" width="78" height="78" as="geometry" />
        </mxCell>
        <mxCell id="TXrkAOCzkBwDEtICeqAb-6" value="" style="image;aspect=fixed;html=1;points=[];align=center;fontSize=12;image=img/lib/azure2/networking/Network_Security_Groups.svg;" vertex="1" parent="1">
          <mxGeometry x="480" y="280" width="65.88" height="80" as="geometry" />
        </mxCell>
        <mxCell id="TXrkAOCzkBwDEtICeqAb-8" value="" style="image;aspect=fixed;html=1;points=[];align=center;fontSize=12;image=img/lib/azure2/other/SSH_Keys.svg;" vertex="1" parent="1">
          <mxGeometry x="320" y="440" width="68" height="60" as="geometry" />
        </mxCell>
        <mxCell id="TXrkAOCzkBwDEtICeqAb-20" style="edgeStyle=orthogonalEdgeStyle;rounded=0;orthogonalLoop=1;jettySize=auto;html=1;entryX=0;entryY=0.487;entryDx=0;entryDy=0;entryPerimeter=0;startArrow=classic;startFill=1;" edge="1" parent="1" source="TXrkAOCzkBwDEtICeqAb-2" target="TXrkAOCzkBwDEtICeqAb-6">
          <mxGeometry relative="1" as="geometry" />
        </mxCell>
        <mxCell id="TXrkAOCzkBwDEtICeqAb-23" value="EBS" style="text;html=1;strokeColor=none;fillColor=none;align=center;verticalAlign=middle;whiteSpace=wrap;rounded=0;" vertex="1" parent="1">
          <mxGeometry x="169" y="360" width="60" height="30" as="geometry" />
        </mxCell>
        <mxCell id="TXrkAOCzkBwDEtICeqAb-24" value="RSA key pair" style="text;html=1;strokeColor=none;fillColor=none;align=center;verticalAlign=middle;whiteSpace=wrap;rounded=0;" vertex="1" parent="1">
          <mxGeometry x="324" y="500" width="60" height="30" as="geometry" />
        </mxCell>
        <mxCell id="TXrkAOCzkBwDEtICeqAb-25" value="Security group" style="text;html=1;strokeColor=none;fillColor=none;align=center;verticalAlign=middle;whiteSpace=wrap;rounded=0;" vertex="1" parent="1">
          <mxGeometry x="485.88" y="370" width="60" height="30" as="geometry" />
        </mxCell>
        <mxCell id="TXrkAOCzkBwDEtICeqAb-27" value="" style="sketch=0;outlineConnect=0;fontColor=#232F3E;gradientColor=none;fillColor=#ED7100;strokeColor=none;dashed=0;verticalLabelPosition=bottom;verticalAlign=top;align=center;html=1;fontSize=12;fontStyle=0;aspect=fixed;pointerEvents=1;shape=mxgraph.aws4.c4_instance;" vertex="1" parent="1">
          <mxGeometry x="335" y="150" width="48" height="48" as="geometry" />
        </mxCell>
        <mxCell id="TXrkAOCzkBwDEtICeqAb-28" value="Instance type" style="text;html=1;strokeColor=none;fillColor=none;align=center;verticalAlign=middle;whiteSpace=wrap;rounded=0;" vertex="1" parent="1">
          <mxGeometry x="328" y="110" width="60" height="30" as="geometry" />
        </mxCell>
        <mxCell id="TXrkAOCzkBwDEtICeqAb-32" style="edgeStyle=orthogonalEdgeStyle;rounded=0;orthogonalLoop=1;jettySize=auto;html=1;entryX=0;entryY=0.5;entryDx=0;entryDy=0;startArrow=classic;startFill=1;" edge="1" parent="1" source="TXrkAOCzkBwDEtICeqAb-29" target="TXrkAOCzkBwDEtICeqAb-31">
          <mxGeometry relative="1" as="geometry" />
        </mxCell>
        <mxCell id="TXrkAOCzkBwDEtICeqAb-31" value="Firebase" style="fontStyle=0;verticalAlign=top;align=center;spacingTop=-2;fillColor=none;rounded=0;whiteSpace=wrap;html=1;strokeColor=#000000;strokeWidth=2;dashed=1;container=1;collapsible=0;expand=0;recursiveResize=0;" vertex="1" parent="1">
          <mxGeometry x="720" y="70" width="480" height="470" as="geometry" />
        </mxCell>
        <mxCell id="TXrkAOCzkBwDEtICeqAb-30" value="" style="shape=image;verticalLabelPosition=bottom;labelBackgroundColor=default;verticalAlign=top;aspect=fixed;imageAspect=0;image=https://miro.medium.com/v2/resize:fit:500/1*Q7TzUZZ9bOZO7rQsbc6IGg.png;" vertex="1" parent="TXrkAOCzkBwDEtICeqAb-31">
          <mxGeometry x="143.10000000000002" y="135" width="193.8" height="200" as="geometry" />
        </mxCell>
        <mxCell id="TXrkAOCzkBwDEtICeqAb-34" value="PARKNEST CLOUD INFRASTRUCUTRE" style="text;html=1;strokeColor=none;fillColor=none;align=center;verticalAlign=middle;whiteSpace=wrap;rounded=0;fontStyle=1" vertex="1" parent="1">
          <mxGeometry x="505" width="310" height="30" as="geometry" />
        </mxCell>
      </root>
    </mxGraphModel>
  </diagram>
</mxfile>
